<svg width="14" height="20" viewBox="0 0 14 20" fill="none" xmlns="http://www.w3.org/2000/svg">
<path d="M12.6794 10.5226L4.218 19.8232C4.02231 20.0385 3.75371 20.1645 3.46179 20.1781C3.16987 20.1916 2.89093 20.091 2.67645 19.8947L1.99357 19.2705C1.54919 18.8638 1.51756 18.1707 1.92304 17.7251L9.02831 9.91505L1.23299 2.78805C1.01851 2.5918 0.892756 2.32276 0.879407 2.03028C0.866042 1.73747 0.966758 1.45792 1.16245 1.24248L1.78559 0.557867C1.98144 0.342583 2.24988 0.216532 2.5418 0.202987C2.83371 0.189442 3.11266 0.290095 3.32714 0.48634L12.6087 8.97182C12.8237 9.16869 12.9491 9.43905 12.9619 9.73205C12.9759 10.0261 12.8756 10.3068 12.6794 10.5226Z" fill="#595555"/>
</svg>
