<svg width="14" height="20" viewBox="0 0 14 20" fill="none" xmlns="http://www.w3.org/2000/svg">
<path d="M1.32935 9.47742L9.79079 0.176819C9.98648 -0.0384587 10.2551 -0.164517 10.547 -0.178062C10.8389 -0.191607 11.1179 -0.0909537 11.3323 0.105292L12.0152 0.729469C12.4596 1.13622 12.4912 1.82934 12.0858 2.27487L4.98048 10.085L12.7758 17.212C12.9903 17.4082 13.116 17.6772 13.1294 17.9697C13.1427 18.2625 13.042 18.5421 12.8463 18.7575L12.2232 19.4421C12.0273 19.6574 11.7589 19.7835 11.467 19.797C11.1751 19.8106 10.8961 19.7099 10.6817 19.5137L1.40013 11.0282C1.18513 10.8313 1.05964 10.561 1.04692 10.268C1.03285 9.97387 1.13319 9.6932 1.32935 9.47742Z" fill="#076BFF"/>
</svg>
